PathFileType	4	(X/Y/Z)	C:/Users/opensim2020/Desktop/walking_exp_matlab/subject02_walking15_straight_02.trc																																																																																																																												
DataRate	CameraRate	NumFrames	NumMarkers	Units	OrigDataRate	OrigDataStartFrame	OrigNumFrames																																																																																																																								
100	100	6	42	mm	100	923	142																																																																																																																								
Frame#	Time	LFHD			RFHD			LBHD			RBHD			C7			T10			CLAV			STRN			RBAK			LSHO			LUPA			LELB			LFRM			LWRA			LWRB			LFIN			RSHO			RUPA			RELB			RFRM			RWRA			RWRB			RFIN			LASI			RASI			LPSI			RPSI			LTHI			LKNE			LTIB			LANK			LHEE			LTOE			RTHI			RKNE			RTIB			RANK			RHEE			RTOE			*39			*40			*41		
		X1	Y1	Z1	X2	Y2	Z2	X3	Y3	Z3	X4	Y4	Z4	X5	Y5	Z5	X6	Y6	Z6	X7	Y7	Z7	X8	Y8	Z8	X9	Y9	Z9	X10	Y10	Z10	X11	Y11	Z11	X12	Y12	Z12	X13	Y13	Z13	X14	Y14	Z14	X15	Y15	Z15	X16	Y16	Z16	X17	Y17	Z17	X18	Y18	Z18	X19	Y19	Z19	X20	Y20	Z20	X21	Y21	Z21	X22	Y22	Z22	X23	Y23	Z23	X24	Y24	Z24	X25	Y25	Z25	X26	Y26	Z26	X27	Y27	Z27	X28	Y28	Z28	X29	Y29	Z29	X30	Y30	Z30	X31	Y31	Z31	X32	Y32	Z32	X33	Y33	Z33	X34	Y34	Z34	X35	Y35	Z35	X36	Y36	Z36	X37	Y37	Z37	X38	Y38	Z38	X39	Y39	Z39	X40	Y40	Z40	X41	Y41	Z41	X42	Y42	Z42
																																																																																																																															
54	0.53	-246.73454	1725.15515	967.992	-249.24141	1709.82776	1111.6532	-371.48529	1640.93884	957.97809	-385.91205	1623.20654	1100.19604	-420.58905	1498.84521	1025.88306	-459.48303	1224.06775	1043.30493	-274.1478	1439.20581	1019.8327	-214.12936	1270.60718	1038.99109	-471.94849	1325.58984	1094.44678	-343.27295	1472.94922	849.36829	-405.93277	1289.53845	761.88794	-454.2019	1166.56689	741.04449	-509.30838	1057.71033	702.1637	-520.37671	914.78723	687.89343	-562.24677	950.02704	673.42883	-587.33954	890.45587	655.38477	-354.67758	1479.8385	1209.60388	-343.93948	1301.19702	1315.05164	-276.60806	1173.80957	1360.65845	-174.8029	1104.68066	1372.85498	-56.15635	1051.28442	1348.11841	-82.76964	1011.95972	1378.98669	-12.39334	1007.30359	1384.50525	-211.1871	973.9079	928.98639	-231.66791	946.8667	1179.31091	-428.94727	1014.54236	991.45844	-438.07153	1008.43433	1109.50977	-200.36942	674.32465	865.07977	-165.17485	479.65833	908.15015	-192.81845	288.38187	909.02869	-174.0995	71.21548	950.30463	-208.46788	44.22874	1004.17212	-18.21903	35.3638	937.74524	-383.49698	660.4162	1258.38428	-432.23169	460.54544	1251.30481	-582.70001	349.06589	1249.75525	-718.47906	214.38608	1217.79651	-765.24225	208.0638	1154.19324	-685.77313	49.26435	1215.61975	-355.27484	1784.92114	1054.12915	-2846.01074	1034.50391	3357.28052	NaN	NaN	NaN
55	0.54	-232.71101	1726.75793	966.99243	-235.53517	1711.54492	1110.39087	-357.59406	1642.68347	956.80969	-371.97586	1624.58838	1098.32031	-406.96906	1500.21008	1024.81409	-445.21451	1225.60352	1041.8833	-260.14038	1440.98401	1018.80029	-199.77138	1272.43945	1038.09595	-458.19836	1327.44226	1093.2793	-329.3934	1474.7832	848.42926	-389.88409	1290.73059	760.27655	-437.13864	1166.58716	739.96759	-489.73792	1056.19031	701.66302	-497.85889	913.24042	689.34216	-540.58514	946.76184	673.76245	-563.3269	885.18207	657.24475	-340.82071	1481.17566	1208.37061	-332.53018	1301.74646	1313.08997	-266.98535	1173.45337	1358.17285	-166.29826	1102.75769	1370.73657	-48.50958	1047.37573	1346.34033	-75.89154	1008.47717	1377.01428	-5.77196	1002.50684	1382.90613	-197.16774	976.33429	926.6488	-216.50513	947.48004	1175.82446	-414.54068	1015.58832	990.80121	-423.36029	1009.23291	1109.02881	-189.30266	673.12207	864.85529	-156.93425	479.25693	907.50909	-189.1147	288.56372	909.97113	-173.58519	71.15707	950.46509	-208.63127	44.41068	1004.50714	-17.81207	34.99891	937.93445	-361.84311	657.93866	1257.70093	-405.75232	458.33252	1252.81799	-557.76068	350.51443	1250.71533	-697.96283	221.72284	1215.41992	-744.0274	218.5649	1151.06946	-671.89941	55.68753	1214.61304	-341.58142	1786.58264	1052.79346	-2845.29541	1034.33411	3360.36133	NaN	NaN	NaN
56	0.55	-218.95793	1728.62842	965.92529	-221.86877	1713.60022	1109.09595	-343.59308	1644.36865	955.82532	-358.44229	1626.8623	1097.65808	-393.35513	1501.87878	1023.79602	-431.02878	1227.30237	1040.49243	-246.28438	1443.03345	1017.96985	-185.86075	1274.57434	1037.46997	-444.70908	1329.61682	1092.39795	-315.39349	1476.68726	847.61469	-373.9263	1291.92749	758.79205	-419.43787	1166.4115	739.07196	-469.49774	1054.22192	701.59283	-473.98346	911.38336	691.19763	-517.56921	943.16174	674.23547	-537.58868	880.04999	659.16052	-327.27463	1482.75549	1207.48108	-321.28409	1302.64856	1311.7926	-257.57397	1173.75	1356.7677	-158.22903	1100.65112	1368.74597	-41.50475	1042.83362	1344.5415	-69.81055	1004.53442	1375.19214	0.04879	997.00409	1381.33704	-183.63841	978.88464	924.39294	-201.73906	948.50232	1172.96912	-400.69571	1016.6922	990.19275	-409.23993	1010.40594	1108.14819	-179.39479	673.87579	864.50708	-150.22981	478.76331	907.00299	-186.83154	288.5611	910.9303	-173.5706	71.09618	950.76715	-208.75029	44.45216	1004.5874	-17.69391	34.76578	938.12134	-340.08548	656.36017	1257.26733	-379.1908	456.81937	1254.1333	-532.51477	352.50256	1250.68945	-675.71759	228.7056	1211.5979	-720.26685	227.0145	1145.56726	-654.41663	62.90675	1216.47522	-327.92258	1788.57007	1051.60266	-2846.01099	1034.32861	3357.43823	NaN	NaN	NaN
57	0.56	-205.2184	1730.54602	964.7901	-208.09666	1715.77881	1108.05884	-329.90359	1646.505	954.72174	-344.70828	1629.18079	1096.69531	-379.59433	1503.91858	1022.7981	-417.06558	1229.25037	1039.16663	-232.61768	1445.20081	1017.2735	-173.21848	1276.53076	1037.11975	-431.30804	1332.01172	1091.59216	-301.50424	1478.86511	846.63757	-357.48657	1293.06116	757.66229	-401.49896	1166.44641	737.98547	-448.31198	1052.07031	701.76385	-448.94675	909.54114	693.34912	-493.38669	939.4715	675.15485	-510.93863	875.06738	661.19916	-313.92419	1484.45935	1206.73901	-310.10867	1303.45593	1309.88379	-248.12012	1173.5271	1354.02417	-150.51598	1098.43079	1366.84827	-35.21405	1037.72766	1342.81567	-64.4555	1000.28528	1373.41699	5.14043	990.77228	1379.62573	-170.71593	981.32196	922.39252	-187.58929	950.03601	1170.79419	-387.23502	1018.19366	989.49689	-395.81714	1012.09454	1106.9823	-169.23468	675.52332	864.13116	-144.62238	478.44565	906.37048	-185.41338	288.56308	911.50903	-173.66	71.1972	951.01227	-209.17216	44.45747	1004.59351	-17.64478	34.62992	938.25916	-318.698	656.01227	1256.92944	-352.66565	456.44952	1255.0575	-506.99878	355.27057	1249.45215	-652.56372	235.08774	1206.21155	-695.52258	232.00624	1138.22949	-633.70911	69.77138	1217.94397	-314.2084	1790.44373	1050.28955	-2845.31934	1034.255	3360.38013	NaN	NaN	NaN
58	0.57	-191.31984	1732.68579	963.91235	-194.32703	1718.07666	1107.11829	-316.27875	1648.47766	953.83948	-331.17606	1631.74194	1097.20984	-365.88226	1506.31714	1021.8327	-403.30286	1231.41663	1038.00928	-219.05711	1447.51782	1016.63428	-159.60794	1278.82495	1036.72913	-417.97092	1334.49304	1090.65698	-287.42267	1481.1333	845.76465	-340.87399	1294.26794	756.60944	-382.96271	1166.36548	736.87128	-427.02173	1050.28027	701.66565	-422.73816	907.41315	696.14276	-467.87341	935.74146	676.22821	-483.01035	870.48706	663.08972	-300.7312	1486.16064	1206.18518	-299.1004	1304.84192	1309.05225	-238.84396	1173.75171	1351.97791	-143.18242	1096.11719	1364.97339	-29.41297	1032.45081	1341.0343	-59.77411	995.78668	1371.76428	9.47791	984.05811	1377.88635	-157.84924	983.62256	920.47772	-173.92241	952.26587	1169.32495	-374.15863	1020.21539	988.64069	-383.09189	1014.47632	1105.60364	-158.75995	677.13635	863.82001	-139.54645	478.58615	905.71924	-184.13872	288.91898	910.8761	-173.71117	71.23795	951.15948	-209.4314	44.55086	1004.41016	-17.70569	34.53181	938.16565	-297.65274	656.87225	1256.49426	-326.12982	457.30566	1255.7522	-481.05429	358.36142	1246.87866	-627.94489	240.83328	1199.96326	-669.86487	235.21492	1130.83582	-610.14587	76.50299	1219.06628	-300.37579	1792.56592	1049.0675	-2845.97217	1034.50623	3357.43555	NaN	NaN	NaN
59	0.58	-177.7955	1734.98132	962.57489	-180.52802	1720.43213	1106.17432	-302.44122	1650.55383	953.17676	-317.37402	1634.11853	1096.33105	-352.1488	1508.92126	1020.8573	-389.80185	1233.77283	1036.96228	-205.63112	1449.94165	1016.17346	-146.09581	1281.2196	1036.30933	-404.83835	1337.00439	1089.92944	-273.15695	1483.53015	844.94421	-323.95847	1295.4364	755.73376	-364.10031	1166.33459	736.06311	-403.88626	1048.17273	701.87787	-395.89169	905.77905	698.99414	-441.44791	932.20544	677.76886	-453.87115	866.24017	665.20691	-287.8522	1488.35986	1205.8595	-288.11609	1306.0376	1307.11938	-229.73746	1174.13562	1349.89844	-136.24687	1093.84778	1363.2644	-24.10132	1026.51953	1339.32251	-55.67983	991.1701	1370.16064	13.15705	976.83923	1375.99585	-145.47098	985.5484	919.07562	-160.53334	955.13892	1168.67029	-361.20709	1022.62231	987.6261	-370.47589	1017.09772	1103.90564	-148.30365	678.43103	863.53638	-134.87605	478.87527	904.88202	-182.44843	289.5145	909.77094	-173.68362	71.32859	951.18347	-209.54892	44.62334	1004.33875	-17.72307	34.40945	938.0614	-276.8974	658.4809	1256.03271	-299.81696	459.06467	1255.64648	-455.12772	361.41287	1243.84009	-601.94421	245.07813	1193.91711	-643.0401	237.05061	1124.05652	-583.2121	81.7922	1220.09973	-286.51614	1794.96545	1048.0376	-2846.00806	1034.52576	3357.58984	NaN	NaN	NaN
